<svg xmlns="http://www.w3.org/2000/svg" width="1200" height="800" viewBox="0 0 1200 800">
  <defs>
    <linearGradient id="bg" x1="0" y1="0" x2="1" y2="1">
      <stop offset="0%" stop-color="#0b1220" />
      <stop offset="100%" stop-color="#092338" />
    </linearGradient>
    <linearGradient id="grid" x1="0" y1="0" x2="1" y2="1">
      <stop offset="0%" stop-color="rgba(56,189,248,0.08)" />
      <stop offset="100%" stop-color="rgba(56,189,248,0)" />
    </linearGradient>
  </defs>
  <rect width="1200" height="800" fill="url(#bg)" />
  <g stroke="url(#grid)" stroke-width="2" opacity="0.4">
    <path d="M0 100 H1200" />
    <path d="M0 200 H1200" />
    <path d="M0 300 H1200" />
    <path d="M0 400 H1200" />
    <path d="M0 500 H1200" />
    <path d="M0 600 H1200" />
    <path d="M0 700 H1200" />
    <path d="M100 0 V800" />
    <path d="M200 0 V800" />
    <path d="M300 0 V800" />
    <path d="M400 0 V800" />
    <path d="M500 0 V800" />
    <path d="M600 0 V800" />
    <path d="M700 0 V800" />
    <path d="M800 0 V800" />
    <path d="M900 0 V800" />
    <path d="M1000 0 V800" />
    <path d="M1100 0 V800" />
  </g>
  <text x="50%" y="45%" text-anchor="middle" font-family="sans-serif" font-size="72" fill="#ffffff" opacity="0.85">STAGE 2</text>
  <text x="50%" y="55%" text-anchor="middle" font-family="sans-serif" font-size="28" fill="#a5f3fc" opacity="0.8">次の波が襲い来る！</text>
  <circle cx="870" cy="170" r="130" fill="rgba(56, 189, 248, 0.12)" />
  <circle cx="980" cy="500" r="110" fill="rgba(79, 70, 229, 0.12)" />
  <circle cx="220" cy="620" r="90" fill="rgba(34, 197, 94, 0.12)" />
</svg>
